<svg xmlns="http://www.w3.org/2000/svg" width="762.8" height="552.0" viewBox="0 0 762.8 552.0" font-family="ui-monospace, Menlo, Consolas, monospace" font-size="14">
<rect width="762.8" height="552.0" fill="#211F1E"/>
<text x="16.0" y="30.0" fill="#978786">sample.tsx</text>
<text y="50.0" xml:space="preserve"><tspan x="16.0" fill="#978786">// Umber Calm sample: every syntax role in one screen.</tspan></text>
<text y="70.0" xml:space="preserve"><tspan x="16.0" fill="#EAB5AF">import</tspan><tspan x="66.4" fill="#DCC5C4"> </tspan><tspan x="74.8" fill="#CBA3A1">*</tspan><tspan x="83.2" fill="#DCC5C4"> </tspan><tspan x="91.6" fill="#EAB5AF">as</tspan><tspan x="108.4" fill="#DCC5C4"> </tspan><tspan x="116.8" fill="#7AC1BB">fs</tspan><tspan x="133.6" fill="#DCC5C4"> </tspan><tspan x="142.0" fill="#EAB5AF">from</tspan><tspan x="175.6" fill="#DCC5C4"> </tspan><tspan x="184.0" fill="#AEAEA3">"node:fs/promises"</tspan><tspan x="335.2" fill="#CBA3A1">;</tspan></text>
<text y="90.0" xml:space="preserve"></text>
<text y="110.0" xml:space="preserve"><tspan x="16.0" fill="#978786">/** A palette entry. @param name color name */</tspan></text>
<text y="130.0" xml:space="preserve"><tspan x="16.0" fill="#EAB5AF">interface</tspan><tspan x="91.6" fill="#DCC5C4"> </tspan><tspan x="100.0" fill="#7AC1BB">Swatch</tspan><tspan x="150.4" fill="#DCC5C4"> </tspan><tspan x="158.8" fill="#CBA3A1">{</tspan><tspan x="167.2" fill="#DCC5C4"> </tspan><tspan x="175.6" fill="#DCC5C4">name</tspan><tspan x="209.2" fill="#CBA3A1">:</tspan><tspan x="217.6" fill="#DCC5C4"> </tspan><tspan x="226.0" fill="#7AC1BB">string</tspan><tspan x="276.4" fill="#CBA3A1">;</tspan><tspan x="284.8" fill="#DCC5C4"> </tspan><tspan x="293.2" fill="#DCC5C4">hex</tspan><tspan x="318.4" fill="#CBA3A1">:</tspan><tspan x="326.8" fill="#DCC5C4"> </tspan><tspan x="335.2" fill="#7AC1BB">string</tspan><tspan x="385.6" fill="#DCC5C4"> </tspan><tspan x="394.0" fill="#CBA3A1">}</tspan></text>
<text y="150.0" xml:space="preserve"><tspan x="16.0" fill="#EAB5AF">enum</tspan><tspan x="49.6" fill="#DCC5C4"> </tspan><tspan x="58.0" fill="#7AC1BB">Tier</tspan><tspan x="91.6" fill="#DCC5C4"> </tspan><tspan x="100.0" fill="#CBA3A1">{</tspan><tspan x="108.4" fill="#DCC5C4"> </tspan><tspan x="116.8" fill="#CDA2AB">Supported</tspan><tspan x="192.4" fill="#DCC5C4"> </tspan><tspan x="200.8" fill="#CBA3A1">=</tspan><tspan x="209.2" fill="#DCC5C4"> </tspan><tspan x="217.6" fill="#AEAEA3">"supported"</tspan><tspan x="310.0" fill="#CBA3A1">,</tspan><tspan x="318.4" fill="#DCC5C4"> </tspan><tspan x="326.8" fill="#CDA2AB">Experimental</tspan><tspan x="427.6" fill="#DCC5C4"> </tspan><tspan x="436.0" fill="#CBA3A1">=</tspan><tspan x="444.4" fill="#DCC5C4"> </tspan><tspan x="452.8" fill="#AEAEA3">"experimental"</tspan><tspan x="570.4" fill="#DCC5C4"> </tspan><tspan x="578.8" fill="#CBA3A1">}</tspan></text>
<rect x="209.2" y="156.0" width="159.6" height="20" fill="#2B3030"/>
<text y="170.0" xml:space="preserve"><tspan x="16.0" fill="#EAB5AF">const</tspan><tspan x="58.0" fill="#DCC5C4"> </tspan><tspan x="66.4" fill="#CDA2AB">MAX_RATIO</tspan><tspan x="142.0" fill="#DCC5C4"> </tspan><tspan x="150.4" fill="#CBA3A1">=</tspan><tspan x="158.8" fill="#DCC5C4"> </tspan><tspan x="167.2" fill="#CDA2AB">21</tspan><tspan x="184.0" fill="#CBA3A1">;</tspan><tspan x="209.2" fill="#7AB3B1">● inferred type: 21</tspan></text>
<rect x="66.4" y="176.0" width="58.8" height="20" fill="#EAB5AF"/>
<rect x="318.4" y="176.0" width="210.0" height="20" fill="#39302F"/>
<text y="190.0" xml:space="preserve"><tspan x="16.0" fill="#EAB5AF">const</tspan><tspan x="58.0" fill="#DCC5C4"> </tspan><tspan x="66.4" fill="#211F1E">pattern</tspan><tspan x="125.2" fill="#DCC5C4"> </tspan><tspan x="133.6" fill="#CBA3A1">=</tspan><tspan x="142.0" fill="#DCC5C4"> </tspan><tspan x="150.4" fill="#CDA2AB">/^#[0-9A-F]{6}$/i</tspan><tspan x="293.2" fill="#CBA3A1">;</tspan><tspan x="318.4" fill="#EAB5AF">● the i flag is redundant</tspan></text>
<text y="210.0" xml:space="preserve"></text>
<text y="230.0" xml:space="preserve"><tspan x="16.0" fill="#EAB5AF">@sealed</tspan></text>
<text y="250.0" xml:space="preserve"><tspan x="16.0" fill="#EAB5AF">export</tspan><tspan x="66.4" fill="#DCC5C4"> </tspan><tspan x="74.8" fill="#EAB5AF">class</tspan><tspan x="116.8" fill="#DCC5C4"> </tspan><tspan x="125.2" fill="#7AC1BB">Palette</tspan><tspan x="184.0" fill="#DCC5C4"> </tspan><tspan x="192.4" fill="#CBA3A1">{</tspan></text>
<rect x="0" y="256.0" width="762.8" height="20" fill="#403E3B"/>
<text y="270.0" xml:space="preserve"><tspan x="16.0" fill="#DCC5C4">  </tspan><tspan x="32.8" fill="#7AB3B1">constructor</tspan><tspan x="125.2" fill="#CBA3A1">(</tspan><tspan x="133.6" fill="#EAB5AF">private</tspan><tspan x="192.4" fill="#DCC5C4"> </tspan><tspan x="200.8" fill="#EAB5AF">readonly</tspan><tspan x="268.0" fill="#DCC5C4"> </tspan><tspan x="276.4" fill="#DCC5C4">path</tspan><tspan x="310.0" fill="#CBA3A1">:</tspan><tspan x="318.4" fill="#DCC5C4"> </tspan><tspan x="326.8" fill="#7AC1BB">string</tspan><tspan x="377.2" fill="#CBA3A1">)</tspan><tspan x="385.6" fill="#DCC5C4"> </tspan><tspan x="394.0" fill="#CBA3A1">{}</tspan></text>
<rect x="125.2" y="276.0" width="50.4" height="20" fill="#3D3939"/>
<rect x="175.6" y="276.0" width="8.4" height="20" fill="#3D3939"/>
<rect x="184.0" y="276.0" width="8.4" height="20" fill="#3D3939"/>
<rect x="192.4" y="276.0" width="8.4" height="20" fill="#3D3939"/>
<rect x="200.8" y="276.0" width="33.6" height="20" fill="#3D3939"/>
<rect x="436.0" y="276.0" width="226.8" height="20" fill="#2B3231"/>
<text y="290.0" xml:space="preserve"><tspan x="16.0" fill="#DCC5C4">  </tspan><tspan x="32.8" fill="#EAB5AF">async</tspan><tspan x="74.8" fill="#DCC5C4"> </tspan><tspan x="83.2" fill="#7AB3B1">load</tspan><tspan x="116.8" fill="#CBA3A1">(</tspan><tspan x="125.2" fill="#DCC5C4">strict</tspan><tspan x="175.6" fill="#DCC5C4"> </tspan><tspan x="184.0" fill="#DCC5C4">=</tspan><tspan x="192.4" fill="#DCC5C4"> </tspan><tspan x="200.8" fill="#DCC5C4">true</tspan><tspan x="234.4" fill="#CBA3A1">):</tspan><tspan x="251.2" fill="#DCC5C4"> </tspan><tspan x="259.6" fill="#7AC1BB">Promise</tspan><tspan x="318.4" fill="#CBA3A1">&lt;</tspan><tspan x="326.8" fill="#7AC1BB">Swatch</tspan><tspan x="377.2" fill="#CBA3A1">[]&gt;</tspan><tspan x="402.4" fill="#DCC5C4"> </tspan><tspan x="410.8" fill="#CBA3A1">{</tspan><tspan x="436.0" fill="#7AC1BB">● parameter can be readonly</tspan></text>
<rect x="0" y="296.0" width="762.8" height="20" fill="#353F3F"/>
<text y="310.0" xml:space="preserve"><tspan x="16.0" fill="#DCC5C4">    </tspan><tspan x="49.6" fill="#EAB5AF">const</tspan><tspan x="91.6" fill="#DCC5C4"> </tspan><tspan x="100.0" fill="#DCC5C4">raw</tspan><tspan x="125.2" fill="#DCC5C4"> </tspan><tspan x="133.6" fill="#CBA3A1">=</tspan><tspan x="142.0" fill="#DCC5C4"> </tspan><tspan x="150.4" fill="#EAB5AF">await</tspan><tspan x="192.4" fill="#DCC5C4"> </tspan><tspan x="200.8" fill="#7AC1BB">fs</tspan><tspan x="217.6" fill="#CBA3A1">.</tspan><tspan x="226.0" fill="#7AB3B1">readFile</tspan><tspan x="293.2" fill="#CBA3A1">(</tspan><tspan x="301.6" fill="#CDA2AB">this</tspan><tspan x="335.2" fill="#CBA3A1">.</tspan><tspan x="343.6" fill="#DCC5C4">path</tspan><tspan x="377.2" fill="#CBA3A1">,</tspan><tspan x="385.6" fill="#DCC5C4"> </tspan><tspan x="394.0" fill="#AEAEA3">"utf8"</tspan><tspan x="444.4" fill="#CBA3A1">);</tspan></text>
<rect x="91.6" y="316.0" width="58.8" height="20" fill="#453A38"/>
<rect x="511.6" y="316.0" width="235.2" height="20" fill="#3A292A"/>
<text y="330.0" xml:space="preserve"><tspan x="16.0" fill="#DCC5C4">    </tspan><tspan x="49.6" fill="#EAB5AF">if</tspan><tspan x="66.4" fill="#DCC5C4"> </tspan><tspan x="74.8" fill="#CBA3A1">(!</tspan><tspan x="91.6" fill="#DCC5C4">pattern</tspan><tspan x="150.4" fill="#CBA3A1">.</tspan><tspan x="158.8" fill="#7AB3B1">test</tspan><tspan x="192.4" fill="#CBA3A1">(</tspan><tspan x="200.8" fill="#DCC5C4">raw</tspan><tspan x="226.0" fill="#CBA3A1">))</tspan><tspan x="242.8" fill="#DCC5C4"> </tspan><tspan x="251.2" fill="#EAB5AF">throw</tspan><tspan x="293.2" fill="#DCC5C4"> </tspan><tspan x="301.6" fill="#EAB5AF">new</tspan><tspan x="326.8" fill="#DCC5C4"> </tspan><tspan x="335.2" fill="#7AC1BB">Error</tspan><tspan x="377.2" fill="#CBA3A1">(</tspan><tspan x="385.6" fill="#AEAEA3">`bad hex</tspan><tspan x="452.8" fill="#CDA2AB">\n</tspan><tspan x="469.6" fill="#AEAEA3">`</tspan><tspan x="478.0" fill="#CBA3A1">);</tspan><tspan x="511.6" fill="#F2757F">● expected 1 argument, got 2</tspan></text>
<rect x="0" y="336.0" width="762.8" height="20" fill="#4F3234"/>
<text y="350.0" xml:space="preserve"><tspan x="16.0" fill="#DCC5C4">    </tspan><tspan x="49.6" fill="#978786">// legacy: return [];</tspan></text>
<text y="370.0" xml:space="preserve"><tspan x="16.0" fill="#DCC5C4">    </tspan><tspan x="49.6" fill="#EAB5AF">return</tspan><tspan x="100.0" fill="#DCC5C4"> </tspan><tspan x="108.4" fill="#DCC5C4">raw</tspan><tspan x="133.6" fill="#CBA3A1">.</tspan><tspan x="142.0" fill="#7AB3B1">split</tspan><tspan x="184.0" fill="#CBA3A1">(</tspan><tspan x="192.4" fill="#AEAEA3">"</tspan><tspan x="200.8" fill="#CDA2AB">\n</tspan><tspan x="217.6" fill="#AEAEA3">"</tspan><tspan x="226.0" fill="#CBA3A1">).</tspan><tspan x="242.8" fill="#7AB3B1">map</tspan><tspan x="268.0" fill="#CBA3A1">((</tspan><tspan x="284.8" fill="#DCC5C4">name</tspan><tspan x="318.4" fill="#CBA3A1">) =&gt; ({</tspan><tspan x="377.2" fill="#DCC5C4"> </tspan><tspan x="385.6" fill="#DCC5C4">name</tspan><tspan x="419.2" fill="#CBA3A1">,</tspan><tspan x="427.6" fill="#DCC5C4"> </tspan><tspan x="436.0" fill="#DCC5C4">hex</tspan><tspan x="461.2" fill="#CBA3A1">:</tspan><tspan x="469.6" fill="#DCC5C4"> </tspan><tspan x="478.0" fill="#DCC5C4">name</tspan><tspan x="511.6" fill="#CBA3A1">.</tspan><tspan x="520.0" fill="#7AB3B1">trim</tspan><tspan x="553.6" fill="#CBA3A1">() }));</tspan></text>
<text y="390.0" xml:space="preserve"><tspan x="16.0" fill="#DCC5C4">  </tspan><tspan x="32.8" fill="#CBA3A1">}</tspan></text>
<text y="410.0" xml:space="preserve"><tspan x="16.0" fill="#CBA3A1">}</tspan></text>
<text y="430.0" xml:space="preserve"></text>
<text y="450.0" xml:space="preserve"><tspan x="16.0" fill="#EAB5AF">export</tspan><tspan x="66.4" fill="#DCC5C4"> </tspan><tspan x="74.8" fill="#EAB5AF">const</tspan><tspan x="116.8" fill="#DCC5C4"> </tspan><tspan x="125.2" fill="#DCC5C4">view</tspan><tspan x="158.8" fill="#DCC5C4"> </tspan><tspan x="167.2" fill="#CBA3A1">= &lt;</tspan><tspan x="192.4" fill="#7AB3B1">Swatch</tspan><tspan x="242.8" fill="#DCC5C4"> </tspan><tspan x="251.2" fill="#7AC1BB">name</tspan><tspan x="284.8" fill="#CBA3A1">=</tspan><tspan x="293.2" fill="#AEAEA3">"bg"</tspan><tspan x="326.8" fill="#DCC5C4"> </tspan><tspan x="335.2" fill="#7AC1BB">hex</tspan><tspan x="360.4" fill="#CBA3A1">={</tspan><tspan x="377.2" fill="#7AC1BB">Palette</tspan><tspan x="436.0" fill="#CBA3A1">.</tspan><tspan x="444.4" fill="#DCC5C4">name</tspan><tspan x="478.0" fill="#CBA3A1">} /&gt;;</tspan></text>
<text x="16.0" y="490.0" fill="#978786">sample.md</text>
<text y="510.0" xml:space="preserve"><tspan x="16.0" fill="#EAB5AF"># Umber Calm</tspan></text>
<text y="530.0" xml:space="preserve"><tspan x="16.0" fill="#DCC5C4">A </tspan><tspan x="32.8" fill="#7AB3B1">[palette](https://github.com/ChristianOrrala/umber-calm)</tspan><tspan x="503.2" fill="#DCC5C4"> with </tspan><tspan x="553.6" fill="#AEAEA3">`measured`</tspan><tspan x="637.6" fill="#DCC5C4"> contrast.</tspan></text>
</svg>
